<svg width="206" height="48" viewBox="0 0 206 48" fill="none" xmlns="http://www.w3.org/2000/svg">
<g clip-path="url(#clip0_575_1560)">
<path d="M182.419 10.9945C174.845 10.9945 169.435 16.0759 169.435 24.3683C169.435 32.4579 174.89 37.3862 182.008 37.3862C188.393 37.3862 194.894 33.2483 194.894 23.9545C194.894 16.2828 189.891 10.9945 182.419 10.9945ZM182.218 32.7724C178.346 32.7724 175.976 29.0897 175.976 24.2152C175.976 20.0193 177.782 15.6621 182.267 15.6621C186.595 15.6621 188.348 20.1724 188.348 24.1117C188.348 29.1931 185.818 32.7724 182.218 32.7724Z" fill="#E3032E"/>
<path d="M0 37.7337L6.336 35.8593V1.8703L0 3.74478V37.7337Z" fill="#E3032E"/>
<path d="M28.0759 10.9947C23.904 10.9947 21.1639 13.3782 20.086 15.3478H19.9296L19.6169 10.9533L14.1491 12.5713C14.2313 14.3299 14.2643 16.8747 14.2643 19.0802V37.734L20.6537 35.843V21.9851C20.6296 21.2862 20.7157 20.5879 20.9088 19.9161C21.5795 18.0002 23.328 16.192 25.846 16.192C29.2979 16.192 30.635 18.9354 30.635 22.5685V37.734L36.971 35.8596V21.832C36.9833 13.8458 32.4535 10.9947 28.0759 10.9947Z" fill="#E3032E"/>
<path d="M51.9593 5.08138L45.7879 6.89793V11.5862H40.3447V16.3366H45.7755V28.2083C45.7755 31.5186 46.3927 33.811 47.7339 35.2428C48.9189 36.5379 50.8773 37.3697 53.2018 37.3697C54.1834 37.3721 55.1634 37.2904 56.1312 37.1255L57.6782 31.8207C56.8771 32.056 56.0437 32.1608 55.2096 32.131C52.7863 32.131 51.9593 30.5255 51.9593 27.4635V16.3366H58.0114V11.5862H51.9593V5.08138Z" fill="#E3032E"/>
<path d="M73.7486 10.9945C65.7093 10.9945 61.4798 17.5779 61.4798 24.5793C61.4798 32.3048 66.277 37.3862 74.4192 37.3862C76.258 37.3896 78.0917 37.1898 79.8871 36.7903L81.3806 31.6676C79.4087 32.2662 77.3547 32.5455 75.2956 32.4952C71.2759 32.4952 67.717 30.5255 67.5648 25.9614H84.3429C84.4941 25.0703 84.5657 24.1674 84.5568 23.2634C84.5733 17.731 81.9442 10.9945 73.7486 10.9945ZM67.5648 21.5172C67.824 18.9186 69.4697 15.3434 73.3906 15.3434C77.6119 15.3434 78.6446 19.1834 78.5952 21.5172H67.5648Z" fill="#E3032E"/>
<path d="M96.3031 16.3862H96.0933L95.8958 10.9531L90.469 12.5586C90.5513 14.4041 90.5801 17.069 90.5801 19.7048V37.7338L96.9202 35.8552V23.7476C96.9289 23.0859 96.9991 22.4265 97.1301 21.7779C97.6937 18.9228 99.755 16.9572 102.795 16.9572C103.419 16.9602 104.041 17.0296 104.651 17.1641V11.1724C104.161 11.0619 103.66 11.0092 103.157 11.0152C100.475 10.9945 97.5415 12.8276 96.3031 16.3862Z" fill="#E3032E"/>
<path d="M124.214 10.9945C120.4 10.9945 117.467 12.6 115.611 15.451H115.509L115.2 10.9531L109.699 12.5793C109.777 14.5572 109.835 17.3752 109.835 19.9614V48L116.175 46.1214V34.0138H116.278C117.574 36.0372 120.195 37.3862 123.342 37.3862C129.057 37.3862 134.78 32.9793 134.78 23.851C134.78 15.9724 129.987 10.9945 124.214 10.9945ZM121.947 32.4579C120.656 32.4538 119.404 32.0115 118.394 31.2027C117.384 30.394 116.674 29.266 116.381 28.0014C116.237 27.4252 116.167 26.8327 116.175 26.2386V22.3448C116.185 21.7986 116.272 21.2567 116.434 20.7352C116.709 19.4199 117.42 18.2373 118.45 17.3805C119.479 16.5237 120.768 16.0434 122.104 16.0179C126.177 16.0179 128.337 19.6469 128.337 24.1076C128.337 29.0897 125.971 32.4579 121.947 32.4579Z" fill="#E3032E"/>
<path d="M152.442 10.9945C144.872 10.9945 139.458 16.0759 139.458 24.3683C139.458 32.4579 144.922 37.3862 152.031 37.3862C158.421 37.3862 164.913 33.2483 164.913 23.9545C164.913 16.2828 159.918 10.9945 152.442 10.9945ZM152.229 32.7724C148.365 32.7724 145.995 29.0897 145.995 24.2152C145.995 20.0193 147.797 15.6621 152.278 15.6621C156.61 15.6621 158.359 20.1724 158.359 24.1117C158.367 29.1931 155.845 32.7724 152.229 32.7724Z" fill="#E3032E"/>
<path d="M199.325 1.89517V37.7338L205.714 35.8428V0L199.325 1.89517Z" fill="#E3032E"/>
</g>
<defs>
<clipPath id="clip0_575_1560">
<rect width="205.714" height="48" fill="white"/>
</clipPath>
</defs>
</svg>
