<svg width="135" height="18" viewBox="0 0 135 18" fill="none" xmlns="http://www.w3.org/2000/svg">
<path d="M38.4922 0.355652H44.5058L49.3526 13.3212L54.1632 0.355652H59.9651V17.6429H56.109V4.42774L51.0861 17.6429H47.1248L42.1019 4.49874V17.6429H38.4936V0.355652H38.4922Z" fill="white"/>
<path d="M85.1522 0.355652H98.4172V17.6429H94.3139V3.99895H88.9018C88.8663 6.42759 88.796 9.67795 88.7257 11.4999C88.5836 16.036 87.2755 17.6429 83.4194 17.6429H81.5801V13.9996H82.6062C84.3397 13.9996 84.905 13.2137 85.0122 10.7492C85.1174 8.10619 85.1522 2.85598 85.1522 0.355652Z" fill="white"/>
<path d="M119.4 0.355652H135V3.99895H129.234V17.6429H125.166V3.99895H119.4V0.355652Z" fill="white"/>
<path d="M27.8741 0H26.4052C22.8762 0 20.2029 2.16644 19.5896 5.39149L23.3392 5.99883C23.8523 4.46292 25.0302 3.41485 26.5207 3.34526C27.0025 3.32206 26.8869 3.32768 27.3687 3.34526C29.5839 3.42609 30.5843 4.49807 30.5843 7.14672C26.3864 7.14672 23.5167 6.94638 21.4066 8.35084C19.6829 9.49873 18.9442 10.771 18.9442 12.7821C18.9442 15.693 21.1873 18 24.8074 18C25.3755 18 25.1444 18 25.3059 18C27.8637 18 29.9285 16.9941 30.7688 15.7808V17.6436L34.5463 17.645V7.22474C34.547 3.20467 32.4146 0 27.8741 0ZM25.5677 14.6273C23.9616 14.5816 23.0315 13.6425 23.0315 12.4546C23.0315 11.4712 23.4701 10.9904 24.05 10.6487C24.6577 10.2909 25.4486 10.1672 26.6767 10.1229C27.8567 10.0808 28.8167 10.028 30.6477 10.028C30.6477 12.9782 28.8098 14.4607 26.527 14.6182C26.1664 14.6428 25.945 14.6379 25.5677 14.6273Z" fill="white"/>
<path d="M118.45 10.1679V8.54907C118.45 2.97129 114.979 0.0857544 110.497 0.0857544H109.619C104.797 0.0857544 101.72 3.405 101.561 8.09146C101.539 8.77752 101.539 9.06291 101.561 10.0006C101.675 14.6639 104.912 17.8025 109.236 17.9171C110.028 17.9402 109.926 17.9381 110.673 17.9171C114.439 17.8109 117.29 15.6164 118.13 12.7484L114.488 12.1052C113.597 13.9026 111.899 14.5922 110.541 14.6604C110.111 14.6836 110.05 14.6779 109.62 14.6604C107.492 14.5718 105.586 12.8876 105.586 10.4421V10.1679H118.45ZM109.551 3.34314C109.981 3.31995 110.134 3.31995 110.564 3.34314C112.353 3.43453 114.235 4.60702 114.416 6.93865H105.609C105.813 4.85796 107.468 3.45772 109.551 3.34314Z" fill="white"/>
<path d="M80.46 7.47355C80.3688 3.29039 77.0271 0.0864258 72.6106 0.0864258H71.0101C66.5935 0.0864258 63.2519 3.28969 63.1607 7.49604C63.1377 8.66221 63.1377 9.34194 63.1607 10.5074C63.2519 14.7138 66.5935 17.917 71.0101 17.917H72.6106C77.0271 17.917 80.3688 14.7138 80.46 10.5074C80.483 9.34194 80.483 8.63971 80.46 7.47355ZM76.4256 10.2944C76.3776 12.7371 74.6177 14.3953 72.25 14.5162C71.7954 14.5401 71.8239 14.5401 71.3693 14.5162C68.9779 14.3953 67.2417 12.7371 67.1936 10.2944C67.17 9.27868 67.17 8.70227 67.1936 7.68654C67.2417 5.26774 68.9772 3.60953 71.3693 3.48862C71.8239 3.46472 71.7954 3.46472 72.25 3.48862C74.6177 3.60953 76.3776 5.26845 76.4256 7.71114C76.45 8.72617 76.45 9.27868 76.4256 10.2944Z" fill="white"/>
<path d="M12.5833 11.5442C12.1071 13.1469 10.8303 14.2463 9.11489 14.486C8.6206 14.5549 8.1305 14.5387 7.73159 14.4825C5.5978 14.1816 4.09614 12.5649 4.05159 10.2944C4.02792 9.27868 4.02792 8.70227 4.05159 7.68654C4.09684 5.3999 5.67299 3.72481 7.84576 3.49143C7.97107 3.47808 8.44447 3.4345 8.90186 3.4844C10.7307 3.68333 12.105 4.79116 12.5993 6.47327L16.5744 5.69724C15.7209 2.41665 12.7754 0.0864258 9.00838 0.0864258H7.86664C3.45009 0.0864258 0.10843 3.28969 0.0172304 7.49604C-0.00574347 8.66221 -0.00574347 9.34194 0.0172304 10.5074C0.109126 14.7138 3.45009 17.917 7.86664 17.917H9.00838C12.8478 17.917 15.8226 15.4954 16.6079 12.0988L12.5833 11.5442Z" fill="white"/>
</svg>
